# Blender 3.6.5
# www.blender.org
mtllib Edificio.mtl
g Cube.001_Cube.001
v 10.433376 33.652882 -6.440165
v 10.433376 0.000936 -6.440162
v 10.433376 33.652882 4.440160
v 10.433376 0.000937 4.440162
v -10.423363 33.652882 -6.440165
v -10.423363 0.000936 -6.440162
v -10.423363 33.652882 4.440160
v -10.423363 0.000937 4.440162
vn -0.0000 1.0000 -0.0000
vn -0.0000 -0.0000 1.0000
vn -1.0000 -0.0000 -0.0000
vn -0.0000 -1.0000 -0.0000
vn 1.0000 -0.0000 -0.0000
vn -0.0000 -0.0000 -1.0000
vt 3.299747 -10.130912
vt 3.299747 10.630912
vt -2.817853 10.630912
vt -2.817854 -10.130912
vt 1.102086 0.182522
vt 1.102086 0.939211
vt -0.035050 0.939210
vt -0.035050 0.182522
vt 0.994830 0.196835
vt 0.996581 0.932180
vt -0.108478 0.938125
vt -0.110230 0.202780
vt 0.125000 0.500000
vt 0.375000 0.500000
vt 0.375000 0.750000
vt 0.125000 0.750000
vt 1.126867 0.188426
vt 1.125145 0.947969
vt -0.016279 0.942125
vt -0.014557 0.182582
vt -0.048541 1.011871
vt -0.047128 0.276090
vt 1.058590 0.280885
vt 1.057177 1.016667
s 0
usemtl Cara_edificio
f 1/1/1 5/2/1 7/3/1 3/4/1
f 4/5/2 3/6/2 7/7/2 8/8/2
f 8/9/3 7/10/3 5/11/3 6/12/3
f 6/13/4 2/14/4 4/15/4 8/16/4
f 2/17/5 1/18/5 3/19/5 4/20/5
f 6/21/6 5/22/6 1/23/6 2/24/6
